<?xml version="1.0" encoding="iso-8859-1"?>
<!-- Generator: Adobe Illustrator 18.1.1, SVG Export Plug-In . SVG Version: 6.00 Build 0)  -->
<svg version="1.1" id="Capa_1" xmlns="http://www.w3.org/2000/svg" xmlns:xlink="http://www.w3.org/1999/xlink" x="0px" y="0px"
	 viewBox="0 0 174.239 174.239" style="enable-background:new 0 0 174.239 174.239;" xml:space="preserve">
<g>
	<path d="M124.863,147.754l-4.581,2.639l-16.877,9.758l-2.589,1.494c-2.987,1.743-6.871,0.697-8.613-2.34l-0.299-0.548
		l-21.458-37.141c-1.146-2.041-3.037-3.336-4.73-3.585c-0.597-0.099-1.195-0.05-1.693,0.15h-0.05c0,0-0.049,0-0.099,0.05
		c-0.05,0-0.15,0.05-0.299,0.099c-20.91,9.011-45.804,1.145-57.455-19.068c-0.15-0.15-0.249-0.299-0.299-0.498
		c-7.169-12.795-7.518-27.582-2.141-40.128c3.335-7.916,8.962-14.936,16.58-20.014c0.1-0.15,0.199-0.199,0.298-0.249
		c1.344-0.796,2.887-0.299,3.834,1.344l18.919,32.81c1.245,2.141,4.083,2.887,6.223,1.643l5.577-3.236l19.616-11.302
		c2.19-1.195,2.888-4.083,1.643-6.273L63.973,31.949l-6.522-11.302c-0.946-1.693-0.598-3.236,0.746-3.983
		c0.1-0.1,0.199-0.149,0.299-0.199c21.259-10.505,47.148-2.938,59.346,17.575c0.1,0.199,0.249,0.349,0.349,0.548
		c2.689,4.63,4.431,9.559,5.328,14.538h-5.975c-4.68,0-10.356,3.336-12.646,7.319l-3.187,5.527l-4.082,7.07L87.025,87.412
		c-1.245,2.141-1.842,4.979-1.742,7.767v0.05c0.05,2.489,0.647,4.929,1.742,6.821l17.874,30.868
		c2.29,4.033,7.965,7.319,12.646,7.319h10.057C128.598,142.975,127.502,146.211,124.863,147.754z"/>
	<g>
		<path d="M172.559,87.512l-12.347-21.408c-2.29-3.983-7.915-7.219-12.447-7.219h-24.744c-4.58,0-10.207,3.236-12.497,7.219
			l-7.319,12.696l-5.029,8.713c-2.24,3.983-2.24,10.455,0,14.339l2.44,4.282l9.908,17.127c2.141,3.734,7.219,6.821,11.551,7.12
			c0.15,0.05,0.249,0.05,0.398,0.05c0.15,0.05,0.348,0.05,0.548,0.05h24.744c4.531,0,10.157-3.236,12.447-7.219l12.347-21.409
			C174.8,97.967,174.8,91.495,172.559,87.512z M136.912,111.808h-3.137c-0.448,0-0.847-0.05-1.295-0.099
			c-4.282-0.498-9.061-3.485-11.102-7.07l-1.593-2.788c-0.698-1.195-1.195-2.688-1.444-4.232c-0.647-3.435-0.15-7.368,1.444-10.107
			l1.593-2.738c1.394-2.44,4.082-4.63,7.07-5.925c1.742-0.796,3.585-1.245,5.327-1.245h3.137c4.63,0,10.207,3.236,12.497,7.169
			l1.544,2.738c2.29,3.983,2.29,10.455,0,14.339l-0.748,1.344l-0.796,1.444C147.118,108.572,141.541,111.808,136.912,111.808z"/>
		<path d="M172.559,87.512l-12.347-21.408c-2.29-3.983-7.915-7.219-12.447-7.219h-24.744c-4.58,0-10.207,3.236-12.497,7.219
			l-7.319,12.696l-5.029,8.713c-2.24,3.983-2.24,10.455,0,14.339l2.44,4.282l9.908,17.127c2.141,3.734,7.219,6.821,11.551,7.12
			c0.15,0.05,0.249,0.05,0.398,0.05c0.15,0.05,0.348,0.05,0.548,0.05h24.744c4.531,0,10.157-3.236,12.447-7.219l12.347-21.409
			C174.8,97.967,174.8,91.495,172.559,87.512z M136.912,111.808h-3.137c-0.448,0-0.847-0.05-1.295-0.099
			c-4.282-0.498-9.061-3.485-11.102-7.07l-1.593-2.788c-0.698-1.195-1.195-2.688-1.444-4.232c-0.647-3.435-0.15-7.368,1.444-10.107
			l1.593-2.738c1.394-2.44,4.082-4.63,7.07-5.925c1.742-0.796,3.585-1.245,5.327-1.245h3.137c4.63,0,10.207,3.236,12.497,7.169
			l1.544,2.738c2.29,3.983,2.29,10.455,0,14.339l-0.748,1.344l-0.796,1.444C147.118,108.572,141.541,111.808,136.912,111.808z"/>
		<path d="M172.559,87.512l-12.347-21.408c-2.29-3.983-7.915-7.219-12.447-7.219h-24.744c-4.58,0-10.207,3.236-12.497,7.219
			l-7.319,12.696l-5.029,8.713c-2.24,3.983-2.24,10.455,0,14.339l2.44,4.282l9.908,17.127c2.141,3.734,7.219,6.821,11.551,7.12
			c0.15,0.05,0.249,0.05,0.398,0.05c0.15,0.05,0.348,0.05,0.548,0.05h24.744c4.531,0,10.157-3.236,12.447-7.219l12.347-21.409
			C174.8,97.967,174.8,91.495,172.559,87.512z M136.912,111.808h-3.137c-0.448,0-0.847-0.05-1.295-0.099
			c-4.282-0.498-9.061-3.485-11.102-7.07l-1.593-2.788c-0.698-1.195-1.195-2.688-1.444-4.232c-0.647-3.435-0.15-7.368,1.444-10.107
			l1.593-2.738c1.394-2.44,4.082-4.63,7.07-5.925c1.742-0.796,3.585-1.245,5.327-1.245h3.137c4.63,0,10.207,3.236,12.497,7.169
			l1.544,2.738c2.29,3.983,2.29,10.455,0,14.339l-0.748,1.344l-0.796,1.444C147.118,108.572,141.541,111.808,136.912,111.808z"/>
	</g>
</g>
<g>
</g>
<g>
</g>
<g>
</g>
<g>
</g>
<g>
</g>
<g>
</g>
<g>
</g>
<g>
</g>
<g>
</g>
<g>
</g>
<g>
</g>
<g>
</g>
<g>
</g>
<g>
</g>
<g>
</g>
</svg>
