<svg id="Capa_1" data-name="Capa 1" xmlns="http://www.w3.org/2000/svg" viewBox="0 0 726.57447 631.14894">
  <defs>
    <style>
      .cls-1 {
        fill: #fff;
      }
    </style>
  </defs>
  <path class="cls-1" d="M299.87812,75.73561h41.58022c.24345,1.11173,1.13989.9718,1.926.97032,6.78354-.01279,13.46792,1.13192,20.091,2.27318,46.16821,7.95545,87.39235,26.81048,122.84822,57.49028,47.29116,40.92085,76.08543,92.32544,85.97252,154.23544.993,6.21791.72978,12.62493,2.80354,18.67209v41.58024c-1.11146.22723-.95363,1.12868-1.01665,1.91321a182.62551,182.62551,0,0,1-4.192,28.28332q-34.64476,143.4074-174.49737,190.69547c-4.05763,1.36276-3.89869-.285-3.89672-3.19181q.05982-89.57743-.05677-179.15472c-.00789-3.80757,1.12735-4.65694,4.75244-4.61065,15.50442.19819,31.0132.03024,46.51943.1375,2.58457.01788,3.56506-.4683,3.91-3.36566,2.198-18.461,4.5285-36.91051,7.213-55.30574.53872-3.69158-.03293-4.40791-3.61406-4.3768-18.14509.15758-36.2923.04844-54.4386.10033-2.51.00718-4.39662.1197-4.32472-3.46092.29134-14.50977-.00749-29.03688.52945-43.53472.55745-15.052,8.72638-22.85193,23.88926-24.17494,12.359-1.07836,24.72953-.3649,37.0932-.52539,2.39734-.03114,3.424-.41118,3.40012-3.19547q-.214-24.99076-.01513-49.98425c.01674-2.57174-.86834-3.46488-3.32749-3.63215-16.94569-1.15273-33.90065-2.62292-50.8876-1.88631-14.95417.64844-29.29208,4.12812-42.0391,12.4261-22.47035,14.62761-31.97091,36.5418-33.36815,62.25991-.92057,16.94428-.43,33.97459-.24354,50.9628.04438,4.042-1.19575,4.91015-4.9981,4.85778-15.17415-.209-30.35381.00285-45.52911-.15875-3.16581-.03371-4.13951.72691-4.10905,4.0281q.25355,27.46474-.01173,54.93246c-.04188,3.74566,1.37888,4.21139,4.572,4.1816,15.34064-.14321,30.68385-.00254,46.02495-.11856,2.90512-.022,4.01643.6512,4.012,3.82748q-.133,95.02124.00871,190.04261c.00507,3.21271-1.07941,3.73708-3.961,3.75612a248.99887,248.99887,0,0,1-39.38684-2.93818c-46.09846-7.05221-87.7398-24.81594-122.8436-55.3342C81.943,456.32012,53.2227,370.55572,75.45455,269.23636,97.00712,171.01272,182.99264,93.15281,282.75949,78.57265,288.46665,77.73859,294.40438,78.04138,299.87812,75.73561Z"/>
</svg>
