<svg id="Capa_1" data-name="Capa 1" xmlns="http://www.w3.org/2000/svg" viewBox="0 0 726.57447 631.14894">
  <defs>
    <style>
      .cls-1 {
        fill: #fff;
      }
    </style>
  </defs>
  <path class="cls-1" d="M363.94728,585.57421H323.04316c-4.25553-1.82464-8.85857-1.52852-13.30577-2.18893-50.60111-7.51425-95.47909-27.64167-133.717-61.72895-45.93459-40.94853-73.961-91.86109-83.63-152.79169-.88542-5.5796-.50435-11.39751-2.8-16.74329V308.22424c1.39221-.36933.93346-1.54271,1.01554-2.43665a233.04422,233.04422,0,0,1,5.52628-33.81c15.49795-63.725,50.06334-114.65693,103.8474-152.03947,51.87752-36.05738,109.8191-50.09709,172.51426-43.83982,35.64974,3.558,68.96344,14.84559,100.14107,32.66874,91.70253,52.4231,142.582,159.306,124.46567,263.32148-12.01934,69.00929-46.68878,124.36165-103.292,165.64587-33.04163,24.09934-70.01228,38.98228-110.52721,45.101C376.84268,583.80778,370.2322,583.57609,363.94728,585.57421ZM344.84362,183.53168c-23.7536.20682-47.54482-.47045-71.22288,1.969-19.84856,2.04488-37.48928,9.12342-51.65124,23.77818-15.65163,16.19625-21.40971,36.30764-22.50925,57.96636-1.74515,34.37577-1.35147,68.79933-.79756,103.2007.20539,12.7563.2128,25.5913,2.62061,38.23022,5.68055,29.81788,21.79622,50.95285,50.86361,61.42565,14.779,5.32477,30.1842,5.82774,45.61174,6.11905,39.7092.7498,79.45426,1.92877,119.07785-1.4932,23.2536-2.00823,42.94736-11.81253,57.2646-30.9259,11.14365-14.8767,15.70867-32.12631,16.35464-50.23523,1.61149-45.17818,2.57852-90.39625-.90763-135.53057A78.38509,78.38509,0,0,0,473.36184,215.468c-16.88626-21.84616-40.3834-29.587-66.70571-30.90428C386.07151,183.53357,365.45641,183.39844,344.84362,183.53168Z"/>
  <path class="cls-1" d="M464.61906,329.9755c0,19.60819.31149,39.22308-.10739,58.82232-.28884,13.51629-2.5921,26.73948-10.618,38.21816-9.74416,13.936-23.80267,20.42863-40.1455,21.75273-36.81443,2.9827-73.71922,2.00778-110.59541,1.41079-12.24576-.19821-24.50666-.19309-36.61509-3.079-23.7986-5.67216-37.94983-23.12007-40.09565-47.78525-3.20138-36.79837-2.0529-73.72454-1.48054-110.60438.19256-12.40816.18281-24.83911,3.11765-37.11347,5.61283-23.47462,22.98094-37.84263,47.89053-39.98239,36.96223-3.17508,74.04661-2.03824,111.08836-1.44342,12.08227.194,24.2329-.03729,36.11639,3.04791,24.17834,6.27717,38.54439,23.57189,40.57174,48.51176C465.59343,284.45677,465.21035,307.22071,464.61906,329.9755ZM344.963,405.18814a75.01642,75.01642,0,1,0-74.9949-75.1719A74.60722,74.60722,0,0,0,344.963,405.18814Zm78.08562-135.84823a17.47622,17.47622,0,1,0-17.22546-17.57116A17.606,17.606,0,0,0,423.04865,269.33991Z"/>
  <path class="cls-1" d="M345.09636,379.05685a48.88422,48.88422,0,1,1,48.77934-48.98824A48.64408,48.64408,0,0,1,345.09636,379.05685Z"/>
</svg>
