<svg id="Capa_1" data-name="Capa 1" xmlns="http://www.w3.org/2000/svg" viewBox="0 0 726.57447 631.14894">
  <defs>
    <style>
      .cls-1 {
        fill: #fff;
      }
    </style>
  </defs>
  <path class="cls-1" d="M619.189,307.71076v40.98443c-1.30406.4424-.93787,1.58058-1.00087,2.50064a194.4234,194.4234,0,0,1-4.35154,29.52778Q590.1697,485.568,499.93135,544.09882c-29.86545,19.29815-62.59461,31.31766-97.80164,36.69068-6.61,1.00878-13.39183.80185-19.84977,2.81644H341.29568c-4.264-1.82777-8.87606-1.5314-13.332-2.19314-50.70056-7.52909-95.66689-27.696-133.97957-61.85089-46.02355-41.02881-74.10734-92.03955-83.79323-153.09045-.887-5.59068-.50317-11.42053-2.80535-16.77665V305.71152c.80031-.15657.94827-.73726.99993-1.44a242.851,242.851,0,0,1,6.084-37.28856c23.03986-98.9026,108.93892-177.643,209.5545-192.31994,5.7582-.84,11.74958-.53329,17.27175-2.8626h41.98388c.24572,1.12248,1.15031.96546,1.94453.98234a150.29782,150.29782,0,0,1,26.16326,3.32991c55.05695,10.98065,101.974,36.83853,140.06,78.13578q52.869,57.32676,64.91525,134.60945C617.34174,295.137,617.04659,301.61269,619.189,307.71076ZM214.55034,478.76125a23.06974,23.06974,0,0,0,2.87429-.26683q36.75109-9.67135,73.48053-19.42426a10.90417,10.90417,0,0,1,8.44964.69294c31.77657,16.16415,65.29309,20.75444,100.16114,13.71278,82.72808-16.70719,136.3792-98.81271,118.86286-181.45636C500.94,209.74147,421.08138,156.98365,338.99754,173.513c-94.98683,19.12764-148.7415,119.8202-111.68474,208.9386,2.68262,6.4515,8.52654,12.07144,7.9747,19.22311-.55127,7.14426-3.43051,14.11631-5.35546,21.14571C224.874,441.29124,219.77984,459.75215,214.55034,478.76125Z"/>
  <path class="cls-1" d="M368.55227,450.80761c-23.48361.17455-45.37443-6.14409-65.61543-18.21342a9.11271,9.11271,0,0,0-7.8564-1.06719c-13.24827,3.62451-26.59867,6.87565-39.84653,10.50154-3.48545.95392-4.44847,1.01569-3.25069-3.09841,3.70046-12.71016,6.84785-25.58143,10.5559-38.28922a9.648,9.648,0,0,0-1.30438-8.76666c-15.01519-23.58387-21.47418-49.45631-19.70626-77.28137,3.42953-53.97648,43.09228-101.40367,95.58742-114.63007a127.74114,127.74114,0,0,1,153.03564,84.78184c23.376,73.07351-22.99849,150.14805-98.62808,164.07013A128.88622,128.88622,0,0,1,368.55227,450.80761Zm40.31917-54.11878a36.236,36.236,0,0,0,5.486-.03722c17.13213-2.65445,32.32365-12.87981,31.973-33.00046-.0457-2.622-.79609-4.53163-3.15959-5.66493-10.29493-4.93636-20.57239-9.91076-30.91717-14.74071-3.572-1.66779-6.49018-1.02338-9.00466,2.54139-3.34692,4.74481-7.32034,9.04353-10.93028,13.60848-2.30332,2.91265-4.94464,3.421-8.34689,2.042-22.50618-9.12224-39.83369-24.20708-52.27789-45.012-1.75675-2.93706-1.75189-5.39771.539-8.13816,3.19232-3.81878,6.10642-7.87735,9.01732-11.9213,1.58888-2.20738,2.48725-4.53506,1.24818-7.42531-4.36649-10.18521-8.54755-20.44979-12.8444-30.66513-.91521-2.17583-2.11859-4.44572-4.63758-4.837-7.97832-1.23924-15.65055-1.4422-21.61446,5.13689-14.221,15.6879-16.23319,33.45856-7.35421,51.68552,15.37315,31.5584,38.40959,56.5726,69.56206,73.2109C378.99946,390.62317,393.17907,396.51006,408.87144,396.68883Z"/>
</svg>
